<svg id="symbol-defs" aria-hidden="true" style="position: absolute; width: 0; height: 0; overflow: hidden;" version="1.1" xmlns="http://www.w3.org/2000/svg" xmlns:xlink="http://www.w3.org/1999/xlink">
<defs>
<symbol id="eye" viewBox="0 0 32 32">
    <path d="M16 9c9 0 13 7 13 7s-4 7-13 7-13-7-13-7 4-7 13-7zm0 1c-8 0-12 6-12 6s4 6 12 6 12-6 12-6-4-6-12-6zm0 10a4 4 0 1 1 0-8 4 4 0 0 1 0 8zm0-1a3 3 0 1 0 0-6 3 3 0 0 0 0 6zm0-2a1 1 0 1 0 0-2 1 1 0 0 0 0 2z"/>
</symbol>
<symbol id="eye-disabled" viewBox="0 0 32 32">
    <path d="M8.1 20.9C4.6 18.9 3 16 3 16s4-7 13-7c1.3 0 2.5.1 3.6.4l-.8.8L16 10c-8 0-11.8 6-11.8 6s1.5 2.4 4.6 4.2l-.7.7zm4.3 1.7c1.1.3 2.3.4 3.6.4 9 0 13-7 13-7s-1.6-2.8-5.1-4.9l-.7.7c3 1.8 4.6 4.2 4.6 4.2S24 22 16 22c-1 0-1.9 0-2.8-.2l-.8.8zm7.5-7.5.1.9a4 4 0 0 1-4.9 3.9l.9-.9a3 3 0 0 0 3-3l.9-.9zm-3-3a4 4 0 0 0-4.8 4.8l.9-.9a3 3 0 0 1 3-3l.9-.9zM24 7 7 24l1 1L25 8l-1-1z"/>
</symbol>
</defs>
</svg>
